# xmcd
#
# Track frame offsets: 
#        150
#        15927
#        33939
#        48532
#        63378
#        80520
#        97705
#        115161
#        133725
#        154863
#        170963
#        191999
#        235638
#
# Disc length: 4287 seconds
#
# Revision: 3
# Processed by: cddbd v1.5PL3 Copyright (c) Steve Scherf et al.
# Submitted via: ExactAudioCopy v0.95a3
#
DISCID=a410bd0d
DTITLE=Marshall Dyllon - Enjoy The Ride
DYEAR=2000
DGENRE=Country
TTITLE0=God Bless This Town
TTITLE1=All I Wanna Do
TTITLE2=She's Like A Child
TTITLE3=Live It Up
TTITLE4=You
TTITLE5=Closer To Heaven
TTITLE6=Is She Gone
TTITLE7=I'll Never Miss That Girl
TTITLE8=We Got Love
TTITLE9=Special Girl
TTITLE10=So Bad
TTITLE11=Enjoy The Ride
TTITLE12=Data Track
EXTD=
EXTT0=
EXTT1=
EXTT2=
EXTT3=
EXTT4=
EXTT5=
EXTT6=
EXTT7=
EXTT8=
EXTT9=
EXTT10=
EXTT11=
EXTT12=
PLAYORDER=
